<svg width="1720" height="1720" viewBox="0 0 1720 1720" fill="none" xmlns="http://www.w3.org/2000/svg">
<path d="M605.541 1413.86C590.979 1408.32 582.513 1392.86 562.534 1333.26C552.826 1304.81 543.118 1278.62 540.861 1275.01C538.942 1271.4 528.895 1264.06 518.849 1258.19C508.464 1252.66 484.533 1237.76 464.779 1225.57C445.364 1213.27 414.999 1194.87 397.841 1184.48C380.683 1174.44 363.526 1161.79 359.688 1156.38C348.738 1141.81 347.045 1117.54 348.4 1007.82C349.416 911.425 349.641 907.813 356.866 896.525C365.557 882.302 376.958 877.109 407.662 874.175C430.915 871.917 430.915 871.917 445.138 855.098C452.588 846.067 467.488 827.216 477.535 813.671C498.192 786.128 497.966 787.482 482.727 756.779C453.604 697.517 440.623 665.91 440.623 654.171C440.623 618.952 473.584 604.052 551.923 604.052C593.689 604.391 606.557 606.648 645.726 622.451L674.511 634.078L708.826 617.598C757.704 594.006 781.634 585.54 819.788 577.751C906.819 560.593 989.673 564.205 1069.93 588.136C1082.57 591.974 1094.2 596.263 1095.78 597.505C1097.7 598.747 1104.81 601.681 1111.92 603.939C1119.03 606.197 1139.46 615.904 1157.19 625.612C1327.75 719.754 1406.65 893.477 1357.78 1066.64C1343.21 1118.11 1320.86 1159.54 1282.71 1206.72C1271.42 1220.6 1262.28 1233.92 1262.28 1236.52C1262.28 1239.12 1259.34 1247.47 1255.84 1254.92C1252.23 1262.71 1240.04 1294.77 1228.3 1326.37C1202.79 1396.58 1200.53 1400.76 1186.87 1409.23C1176.49 1415.66 1171.3 1416 1101.09 1416H1026.36L1015.64 1405.28C1009.54 1399.18 1001.75 1385.18 997.236 1373.56C993.059 1362.27 988.205 1348.95 986.512 1344.1C983.916 1336.98 981.658 1335.63 974.547 1336.65C970.032 1337.66 939.893 1340.48 907.947 1343.42C875.889 1346.01 841.574 1349.51 831.866 1350.53L814.031 1352.79L802.743 1375.14C796.309 1387.1 786.601 1401.33 780.731 1406.52L770.346 1415.89L690.088 1415.55C646.291 1415.77 608.137 1414.87 605.541 1413.86ZM1158.77 1264.74C1187.55 1186.74 1189.47 1182.9 1214.76 1151.86C1250.31 1107.5 1271.99 1062.23 1282.03 1011.1C1294 948.676 1278.76 875.868 1240.94 815.703C1205.95 759.375 1138.34 705.644 1074.67 683.407C1061.35 678.892 1047.47 673.699 1043.97 672.119C1040.36 670.538 1023.54 666.023 1006.72 662.072C960.098 651.349 886.387 652.026 834.236 663.653C813.241 668.168 786.375 676.634 774.749 681.826C763.122 687.358 750.479 691.534 746.98 691.534C741.788 691.534 741.11 693.114 742.803 700.565C750.931 734.88 746.98 751.022 727.565 762.649C703.295 777.549 683.88 769.422 654.757 732.284C650.919 727.091 639.857 718.061 630.488 711.853C602.606 694.018 550.568 681.488 550.568 692.437C550.568 695.033 559.26 715.465 569.984 737.702C590.076 780.032 593.576 796.964 585.787 812.09C581.949 819.54 521.671 898.105 494.918 931.179C482.276 946.418 477.083 950.256 467.375 952.175C460.603 953.191 450.895 955.11 445.364 956.351L435.656 958.609L434.64 1031.76L433.963 1104.9L462.07 1121.72C496.724 1142.38 568.178 1186.4 591.77 1201.64C612.765 1215.52 615.023 1218.8 629.246 1260.9C635.68 1279.64 643.807 1302.33 647.081 1311.02L653.176 1327.16L691.669 1328.18L730.161 1329.2L738.853 1310.46C743.706 1300.07 751.157 1287.77 755.333 1282.91C768.879 1268.69 770.572 1268.35 925.218 1254.47C1027.49 1245.44 1027.49 1245.44 1041.71 1260.34C1049.5 1268.47 1055.93 1280.77 1061.46 1296.57C1072.41 1329.87 1073.77 1330.89 1107.07 1329.53L1134.84 1328.52L1158.77 1264.74Z" fill="#FE6F14"/>
<path d="M1208.21 606.309C1201.44 600.214 1193.31 594.344 1190.37 593.328C1182.92 590.732 1182.92 582.605 1190.71 572.897C1202.68 557.319 1211.71 523.681 1211.37 495.235C1210.35 438.344 1177.05 390.031 1123.1 368.358C1030.54 330.543 926.008 402.673 925.783 504.266C925.783 519.166 925.444 519.504 913.817 521.762C907.044 523.004 895.644 524.358 888.532 524.358L875.551 524.697L874.535 505.62C871.6 449.97 895.192 393.643 937.635 354.812C969.354 325.689 1026.25 303 1067.11 303C1089.8 303 1130.55 311.466 1149.96 320.496C1168.7 328.962 1195.57 349.281 1216 370.051C1254.83 410.123 1273.23 478.077 1261.26 536.662C1255.17 566.124 1230.56 616.92 1222.09 616.92C1221.19 616.92 1214.76 612.066 1208.21 606.309Z" fill="#FE6F14"/>
</svg>
