<svg width="1720" height="1720" viewBox="0 0 1720 1720" fill="none" xmlns="http://www.w3.org/2000/svg">
<path d="M640.337 1099.25C628.444 1094.73 621.53 1082.1 605.212 1033.42C597.284 1010.19 589.355 988.804 587.511 985.854C585.944 982.903 577.739 976.911 569.534 972.117C561.053 967.6 541.508 955.431 525.375 945.474C509.518 935.425 484.719 920.398 470.706 911.917C456.693 903.712 442.68 893.386 439.545 888.961C430.603 877.068 429.22 857.248 430.326 767.638C431.156 688.907 431.34 685.957 437.241 676.738C444.339 665.122 453.651 660.881 478.726 658.484C497.718 656.641 497.718 656.641 509.334 642.904C515.418 635.529 527.588 620.133 535.792 609.07C552.663 586.576 552.479 587.682 540.033 562.606C516.248 514.206 505.646 488.393 505.646 478.805C505.646 450.041 532.566 437.872 596.546 437.872C630.657 438.149 641.166 439.993 673.157 452.899L696.665 462.395L724.691 448.935C764.61 429.667 784.154 422.753 815.315 416.392C886.394 402.379 954.062 405.329 1019.61 424.873C1029.93 428.008 1039.43 431.511 1040.72 432.525C1042.29 433.539 1048.1 435.936 1053.9 437.78C1059.71 439.624 1076.4 447.552 1090.87 455.481C1230.17 532.368 1294.61 674.249 1254.7 815.67C1242.8 857.708 1224.55 891.542 1193.39 930.078C1184.17 941.418 1176.7 952.296 1176.7 954.416C1176.7 956.537 1174.31 963.359 1171.45 969.444C1168.5 975.805 1158.54 1001.99 1148.95 1027.8C1128.12 1085.14 1126.27 1088.55 1115.12 1095.47C1106.64 1100.72 1102.4 1101 1045.05 1101H984.023L975.265 1092.24C970.287 1087.26 963.926 1075.83 960.238 1066.34C956.827 1057.12 952.863 1046.24 951.48 1042.27C949.36 1036.47 947.516 1035.36 941.708 1036.19C938.02 1037.02 913.405 1039.32 887.316 1041.72C861.133 1043.84 833.107 1046.7 825.179 1047.53L810.613 1049.37L801.394 1067.63C796.139 1077.4 788.211 1089.01 783.417 1093.26L774.935 1100.91L709.388 1100.63C673.618 1100.82 642.457 1100.08 640.337 1099.25ZM1092.16 977.464C1115.67 913.76 1117.24 910.626 1137.89 885.273C1166.93 849.043 1184.63 812.074 1192.84 770.312C1202.61 719.33 1190.16 659.867 1159.28 610.73C1130.7 564.727 1075.48 520.844 1023.48 502.682C1012.6 498.995 1001.26 494.754 998.405 493.463C995.455 492.172 981.719 488.485 967.982 485.258C929.908 476.5 869.707 477.053 827.115 486.549C809.967 490.236 788.026 497.151 778.531 501.392C769.035 505.909 758.71 509.32 755.852 509.32C751.611 509.32 751.058 510.611 752.441 516.695C759.078 544.721 755.852 557.904 739.995 567.4C720.174 579.569 704.317 572.932 680.532 542.601C677.397 538.36 668.363 530.985 660.711 525.914C637.94 511.348 595.44 501.115 595.44 510.057C595.44 512.178 602.539 528.864 611.297 547.026C627.707 581.597 630.564 595.426 624.203 607.78C621.069 613.864 571.839 678.029 549.99 705.041C539.664 717.486 535.424 720.621 527.495 722.188C521.964 723.018 514.035 724.585 509.518 725.599L501.59 727.443L500.76 787.183L500.207 846.922L523.162 860.659C551.465 877.53 609.822 913.484 629.089 925.93C646.237 937.269 648.081 939.943 659.697 974.33C664.952 989.633 671.589 1008.16 674.263 1015.26L679.241 1028.45L710.678 1029.28L742.115 1030.1L749.214 1014.8C753.178 1006.32 759.263 996.271 762.674 992.307C773.737 980.691 775.119 980.414 901.421 969.075C984.945 961.7 984.945 961.7 996.561 973.869C1002.92 980.506 1008.18 990.555 1012.69 1003.46C1021.64 1030.66 1022.74 1031.49 1049.94 1030.38L1072.62 1029.55L1092.16 977.464Z" fill="#FE6F14"/>
<path d="M1132.54 439.716C1127.01 434.738 1120.37 429.944 1117.98 429.114C1111.89 426.994 1111.89 420.356 1118.25 412.428C1128.03 399.706 1135.4 372.233 1135.12 349.001C1134.29 302.537 1107.1 263.079 1063.03 245.378C987.435 214.495 902.066 273.404 901.882 356.376C901.882 368.545 901.605 368.822 892.109 370.666C886.578 371.68 877.267 372.786 871.459 372.786L860.857 373.062L860.027 357.482C857.63 312.032 876.898 266.029 911.562 234.316C937.467 210.53 983.931 192 1017.3 192C1035.83 192 1069.12 198.914 1084.97 206.29C1100.28 213.204 1122.22 229.798 1138.9 246.761C1170.62 279.489 1185.64 334.988 1175.87 382.835C1170.89 406.896 1150.8 448.382 1143.88 448.382C1143.14 448.382 1137.89 444.418 1132.54 439.716Z" fill="#FE6F14"/>
<path d="M167.98 1305C188.953 1305 205.247 1309.94 216.86 1319.82C228.473 1329.7 234.28 1344.17 234.28 1363.24C234.28 1382.31 228.473 1396.87 216.86 1406.92C205.247 1416.97 188.953 1422 167.98 1422H126.38V1479.98C126.38 1481.89 125.687 1483.53 124.3 1484.92C122.913 1486.31 121.267 1487 119.36 1487H98.3C96.3933 1487 94.7467 1486.31 93.36 1484.92C91.9733 1483.53 91.28 1481.89 91.28 1479.98V1312.02C91.28 1310.11 91.9733 1308.47 93.36 1307.08C94.7467 1305.69 96.3933 1305 98.3 1305H167.98ZM126.38 1389.5H166.68C176.56 1389.5 184.447 1387.59 190.34 1383.78C196.233 1379.79 199.18 1372.95 199.18 1363.24C199.18 1353.53 196.233 1346.86 190.34 1343.22C184.447 1339.41 176.56 1337.5 166.68 1337.5H126.38V1389.5ZM323.507 1383C313.107 1383 305.567 1385.34 300.887 1390.02C296.38 1394.53 294.127 1401.98 294.127 1412.38V1479.98C294.127 1481.89 293.433 1483.53 292.047 1484.92C290.66 1486.31 289.013 1487 287.107 1487H267.347C265.44 1487 263.793 1486.31 262.407 1484.92C261.02 1483.53 260.327 1481.89 260.327 1479.98V1358.82C260.327 1356.91 261.02 1355.27 262.407 1353.88C263.793 1352.49 265.44 1351.8 267.347 1351.8H287.107C289.013 1351.8 290.66 1352.49 292.047 1353.88C293.433 1355.27 294.127 1356.91 294.127 1358.82V1364.8C298.633 1360.64 303.4 1357.43 308.427 1355.18C313.627 1352.93 320.387 1351.8 328.707 1351.8H340.407C342.313 1351.8 343.96 1352.49 345.347 1353.88C346.733 1355.27 347.427 1356.91 347.427 1358.82V1375.98C347.427 1377.89 346.733 1379.53 345.347 1380.92C343.96 1382.31 342.313 1383 340.407 1383H323.507ZM426.507 1349.2C436.041 1349.2 444.621 1350.67 452.247 1353.62C460.047 1356.57 466.721 1360.64 472.267 1365.84C477.987 1371.04 482.494 1377.11 485.787 1384.04C489.254 1390.97 491.247 1398.43 491.767 1406.4C491.941 1407.96 492.027 1409.95 492.027 1412.38C492.027 1414.81 492.027 1417.23 492.027 1419.66C492.027 1422.09 492.027 1424.51 492.027 1426.94C492.027 1429.19 491.941 1431.1 491.767 1432.66C491.074 1440.63 489.081 1448.09 485.787 1455.02C482.494 1461.95 477.987 1468.02 472.267 1473.22C466.721 1478.25 460.047 1482.23 452.247 1485.18C444.621 1488.13 436.041 1489.6 426.507 1489.6C416.974 1489.6 408.307 1488.13 400.507 1485.18C392.881 1482.23 386.207 1478.25 380.487 1473.22C374.941 1468.02 370.521 1461.95 367.227 1455.02C363.934 1448.09 361.941 1440.63 361.247 1432.66C361.074 1431.1 360.901 1429.19 360.727 1426.94C360.727 1424.51 360.727 1422.09 360.727 1419.66C360.727 1417.23 360.727 1414.81 360.727 1412.38C360.901 1409.95 361.074 1407.96 361.247 1406.4C361.767 1398.43 363.674 1390.97 366.967 1384.04C370.434 1377.11 374.941 1371.04 380.487 1365.84C386.207 1360.64 392.881 1356.57 400.507 1353.62C408.307 1350.67 416.974 1349.2 426.507 1349.2ZM457.967 1407.7C457.447 1402.33 456.147 1397.91 454.067 1394.44C452.161 1390.8 449.734 1387.94 446.787 1385.86C443.841 1383.78 440.634 1382.39 437.167 1381.7C433.701 1380.83 430.147 1380.4 426.507 1380.4C422.867 1380.4 419.314 1380.83 415.847 1381.7C412.381 1382.39 409.174 1383.78 406.227 1385.86C403.281 1387.94 400.767 1390.8 398.687 1394.44C396.781 1397.91 395.567 1402.33 395.047 1407.7C394.874 1409.09 394.701 1410.82 394.527 1412.9C394.527 1414.98 394.527 1417.15 394.527 1419.4C394.527 1421.65 394.527 1423.91 394.527 1426.16C394.701 1428.24 394.874 1429.89 395.047 1431.1C395.567 1436.47 396.781 1440.98 398.687 1444.62C400.767 1448.09 403.281 1450.86 406.227 1452.94C409.174 1455.02 412.381 1456.49 415.847 1457.36C419.314 1458.05 422.867 1458.4 426.507 1458.4C430.147 1458.4 433.701 1458.05 437.167 1457.36C440.634 1456.49 443.841 1455.02 446.787 1452.94C449.734 1450.86 452.161 1448.09 454.067 1444.62C456.147 1440.98 457.447 1436.47 457.967 1431.1C458.141 1429.89 458.227 1428.24 458.227 1426.16C458.227 1423.91 458.227 1421.65 458.227 1419.4C458.227 1417.15 458.227 1414.98 458.227 1412.9C458.227 1410.82 458.141 1409.09 457.967 1407.7ZM650.593 1479.98C650.593 1481.89 649.899 1483.53 648.513 1484.92C647.126 1486.31 645.479 1487 643.573 1487H623.813C621.906 1487 620.259 1486.31 618.873 1484.92C617.486 1483.53 616.793 1481.89 616.793 1479.98V1383H565.833V1479.98C565.833 1481.89 565.139 1483.53 563.753 1484.92C562.366 1486.31 560.719 1487 558.813 1487H539.053C537.146 1487 535.499 1486.31 534.113 1484.92C532.726 1483.53 532.033 1481.89 532.033 1479.98V1383H514.873C512.966 1383 511.319 1382.31 509.933 1380.92C508.546 1379.53 507.853 1377.89 507.853 1375.98V1358.82C507.853 1356.91 508.546 1355.27 509.933 1353.88C511.319 1352.49 512.966 1351.8 514.873 1351.8H532.033V1340.1C532.033 1331.78 533.246 1324.76 535.673 1319.04C538.099 1313.15 541.566 1308.38 546.073 1304.74C550.579 1301.1 555.953 1298.5 562.193 1296.94C568.606 1295.38 575.713 1294.6 583.513 1294.6H643.573C645.479 1294.6 647.126 1295.29 648.513 1296.68C649.899 1298.07 650.593 1299.71 650.593 1301.62V1318.78C650.593 1320.69 649.899 1322.33 648.513 1323.72C647.126 1325.11 645.479 1325.8 643.573 1325.8H586.113C579.526 1325.8 574.499 1327.01 571.033 1329.44C567.566 1331.69 565.833 1336.11 565.833 1342.7V1351.8H643.573C645.479 1351.8 647.126 1352.49 648.513 1353.88C649.899 1355.27 650.593 1356.91 650.593 1358.82V1479.98ZM731.881 1438.12C731.881 1443.49 733.268 1447.83 736.041 1451.12C738.988 1454.24 744.361 1455.8 752.161 1455.8H768.021C769.928 1455.8 771.575 1456.49 772.961 1457.88C774.348 1459.27 775.041 1460.91 775.041 1462.82V1479.98C775.041 1481.89 774.348 1483.53 772.961 1484.92C771.575 1486.31 769.928 1487 768.021 1487H748.781C732.488 1487 719.921 1483.1 711.081 1475.3C702.415 1467.33 698.081 1455.19 698.081 1438.9V1383H680.921C679.015 1383 677.368 1382.31 675.981 1380.92C674.595 1379.53 673.901 1377.89 673.901 1375.98V1358.82C673.901 1356.91 674.595 1355.27 675.981 1353.88C677.368 1352.49 679.015 1351.8 680.921 1351.8H698.081V1309.42C698.081 1307.51 698.775 1305.87 700.161 1304.48C701.548 1303.09 703.195 1302.4 705.101 1302.4H724.861C726.768 1302.4 728.415 1303.09 729.801 1304.48C731.188 1305.87 731.881 1307.51 731.881 1309.42V1351.8H765.421C767.328 1351.8 768.975 1352.49 770.361 1353.88C771.748 1355.27 772.441 1356.91 772.441 1358.82V1375.98C772.441 1377.89 771.748 1379.53 770.361 1380.92C768.975 1382.31 767.328 1383 765.421 1383H731.881V1438.12ZM924.919 1397.56C925.959 1393.75 928.299 1391.84 931.939 1391.84H951.699C953.606 1391.84 955.253 1392.53 956.639 1393.92C958.199 1395.31 958.893 1396.95 958.719 1398.86C958.026 1406.14 955.773 1414.29 951.959 1423.3C948.319 1432.14 943.206 1440.81 936.619 1449.3L962.619 1474.26C963.833 1475.47 964.613 1476.51 964.959 1477.38C965.306 1478.25 965.479 1479.03 965.479 1479.72C965.479 1481.8 964.786 1483.53 963.399 1484.92C962.186 1486.31 960.626 1487 958.719 1487H932.979C931.073 1487 929.686 1486.74 928.819 1486.22C927.953 1485.53 927.173 1484.92 926.479 1484.4L913.219 1471.92C905.766 1477.29 897.446 1481.63 888.259 1484.92C879.246 1488.04 869.366 1489.6 858.619 1489.6C850.993 1489.6 843.453 1488.56 835.999 1486.48C828.719 1484.4 822.133 1481.28 816.239 1477.12C810.519 1472.96 805.839 1467.85 802.199 1461.78C798.559 1455.71 796.739 1448.69 796.739 1440.72C796.739 1434.65 797.606 1429.19 799.339 1424.34C801.073 1419.49 803.413 1415.07 806.359 1411.08C809.479 1407.09 812.946 1403.45 816.759 1400.16C820.746 1396.87 824.906 1393.75 829.239 1390.8C822.479 1383.35 817.539 1376.41 814.419 1370C811.299 1363.41 809.739 1356.65 809.739 1349.72C809.739 1342.79 810.953 1336.46 813.379 1330.74C815.979 1324.85 819.533 1319.82 824.039 1315.66C828.546 1311.5 833.919 1308.29 840.159 1306.04C846.399 1303.61 853.333 1302.4 860.959 1302.4C868.413 1302.4 875.259 1303.61 881.499 1306.04C887.913 1308.47 893.286 1311.85 897.619 1316.18C902.126 1320.34 905.593 1325.28 908.019 1331C910.619 1336.72 911.919 1342.87 911.919 1349.46C911.919 1359.86 909.146 1368.61 903.599 1375.72C898.226 1382.65 890.773 1389.41 881.239 1396L912.179 1425.64C915.299 1421.13 917.899 1416.45 919.979 1411.6C922.059 1406.75 923.706 1402.07 924.919 1397.56ZM853.419 1414.2C846.833 1418.19 841.373 1422.26 837.039 1426.42C832.706 1430.41 830.539 1434.91 830.539 1439.94C830.539 1442.54 831.319 1444.97 832.879 1447.22C834.613 1449.47 836.779 1451.38 839.379 1452.94C841.979 1454.5 844.926 1455.71 848.219 1456.58C851.686 1457.45 855.153 1457.88 858.619 1457.88C864.339 1457.88 869.713 1457.1 874.739 1455.54C879.939 1453.81 884.793 1451.47 889.299 1448.52L853.419 1414.2ZM857.579 1373.12C864.339 1368.79 869.453 1365.06 872.919 1361.94C876.386 1358.65 878.119 1354.49 878.119 1349.46C878.119 1345.99 876.733 1342.7 873.959 1339.58C871.359 1336.46 867.026 1334.9 860.959 1334.9C855.239 1334.9 850.906 1336.37 847.959 1339.32C845.013 1342.09 843.539 1345.47 843.539 1349.46C843.539 1353.97 844.839 1358.04 847.439 1361.68C850.213 1365.32 853.593 1369.13 857.579 1373.12ZM1111.52 1454.5C1113.42 1454.5 1115.07 1455.19 1116.46 1456.58C1117.84 1457.97 1118.54 1459.61 1118.54 1461.52V1479.98C1118.54 1481.89 1117.84 1483.53 1116.46 1484.92C1115.07 1486.31 1113.42 1487 1111.52 1487H997.636C995.729 1487 994.083 1486.31 992.696 1484.92C991.309 1483.53 990.616 1481.89 990.616 1479.98V1312.02C990.616 1310.11 991.309 1308.47 992.696 1307.08C994.083 1305.69 995.729 1305 997.636 1305H1018.7C1020.6 1305 1022.25 1305.69 1023.64 1307.08C1025.02 1308.47 1025.72 1310.11 1025.72 1312.02V1454.5H1111.52ZM1200.67 1349.2C1210.2 1349.2 1218.78 1350.67 1226.41 1353.62C1234.21 1356.57 1240.88 1360.64 1246.43 1365.84C1252.15 1371.04 1256.65 1377.11 1259.95 1384.04C1263.41 1390.97 1265.41 1398.43 1265.93 1406.4C1266.1 1407.96 1266.19 1409.95 1266.19 1412.38C1266.19 1414.81 1266.19 1417.23 1266.19 1419.66C1266.19 1422.09 1266.19 1424.51 1266.19 1426.94C1266.19 1429.19 1266.1 1431.1 1265.93 1432.66C1265.23 1440.63 1263.24 1448.09 1259.95 1455.02C1256.65 1461.95 1252.15 1468.02 1246.43 1473.22C1240.88 1478.25 1234.21 1482.23 1226.41 1485.18C1218.78 1488.13 1210.2 1489.6 1200.67 1489.6C1191.13 1489.6 1182.47 1488.13 1174.67 1485.18C1167.04 1482.23 1160.37 1478.25 1154.65 1473.22C1149.1 1468.02 1144.68 1461.95 1141.39 1455.02C1138.09 1448.09 1136.1 1440.63 1135.41 1432.66C1135.23 1431.1 1135.06 1429.19 1134.89 1426.94C1134.89 1424.51 1134.89 1422.09 1134.89 1419.66C1134.89 1417.23 1134.89 1414.81 1134.89 1412.38C1135.06 1409.95 1135.23 1407.96 1135.41 1406.4C1135.93 1398.43 1137.83 1390.97 1141.13 1384.04C1144.59 1377.11 1149.1 1371.04 1154.65 1365.84C1160.37 1360.64 1167.04 1356.57 1174.67 1353.62C1182.47 1350.67 1191.13 1349.2 1200.67 1349.2ZM1232.13 1407.7C1231.61 1402.33 1230.31 1397.91 1228.23 1394.44C1226.32 1390.8 1223.89 1387.94 1220.95 1385.86C1218 1383.78 1214.79 1382.39 1211.33 1381.7C1207.86 1380.83 1204.31 1380.4 1200.67 1380.4C1197.03 1380.4 1193.47 1380.83 1190.01 1381.7C1186.54 1382.39 1183.33 1383.78 1180.39 1385.86C1177.44 1387.94 1174.93 1390.8 1172.85 1394.44C1170.94 1397.91 1169.73 1402.33 1169.21 1407.7C1169.03 1409.09 1168.86 1410.82 1168.69 1412.9C1168.69 1414.98 1168.69 1417.15 1168.69 1419.4C1168.69 1421.65 1168.69 1423.91 1168.69 1426.16C1168.86 1428.24 1169.03 1429.89 1169.21 1431.1C1169.73 1436.47 1170.94 1440.98 1172.85 1444.62C1174.93 1448.09 1177.44 1450.86 1180.39 1452.94C1183.33 1455.02 1186.54 1456.49 1190.01 1457.36C1193.47 1458.05 1197.03 1458.4 1200.67 1458.4C1204.31 1458.4 1207.86 1458.05 1211.33 1457.36C1214.79 1456.49 1218 1455.02 1220.95 1452.94C1223.89 1450.86 1226.32 1448.09 1228.23 1444.62C1230.31 1440.98 1231.61 1436.47 1232.13 1431.1C1232.3 1429.89 1232.39 1428.24 1232.39 1426.16C1232.39 1423.91 1232.39 1421.65 1232.39 1419.4C1232.39 1417.15 1232.39 1414.98 1232.39 1412.9C1232.39 1410.82 1232.3 1409.09 1232.13 1407.7ZM1369.34 1448.26C1369.34 1446.35 1368.73 1444.79 1367.52 1443.58C1366.3 1442.37 1364.14 1441.24 1361.02 1440.2C1358.07 1439.16 1354.08 1438.12 1349.06 1437.08C1344.03 1436.04 1337.62 1434.65 1329.82 1432.92C1322.19 1431.19 1315.86 1429.02 1310.84 1426.42C1305.81 1423.82 1301.74 1420.79 1298.62 1417.32C1295.67 1413.85 1293.59 1409.95 1292.38 1405.62C1291.16 1401.11 1290.56 1396.26 1290.56 1391.06C1290.56 1385.86 1291.77 1380.75 1294.2 1375.72C1296.62 1370.69 1300.09 1366.27 1304.6 1362.46C1309.28 1358.47 1314.91 1355.27 1321.5 1352.84C1328.08 1350.41 1335.62 1349.2 1344.12 1349.2C1352.61 1349.2 1360.15 1350.15 1366.74 1352.06C1373.5 1353.97 1379.22 1356.48 1383.9 1359.6C1388.58 1362.72 1392.22 1366.36 1394.82 1370.52C1397.42 1374.51 1398.89 1378.58 1399.24 1382.74C1399.41 1384.65 1398.72 1386.29 1397.16 1387.68C1395.77 1389.07 1394.12 1389.76 1392.22 1389.76H1372.2C1369.6 1389.76 1367.6 1389.33 1366.22 1388.46C1365 1387.42 1363.62 1386.29 1362.06 1385.08C1360.5 1383.87 1358.42 1382.83 1355.82 1381.96C1353.22 1380.92 1349.32 1380.4 1344.12 1380.4C1338.92 1380.4 1334.32 1381.18 1330.34 1382.74C1326.35 1384.3 1324.36 1387.07 1324.36 1391.06C1324.36 1392.97 1324.79 1394.61 1325.66 1396C1326.7 1397.21 1328.52 1398.34 1331.12 1399.38C1333.89 1400.42 1337.62 1401.55 1342.3 1402.76C1347.15 1403.8 1353.39 1405.1 1361.02 1406.66C1376.44 1409.95 1387.28 1415.15 1393.52 1422.26C1399.93 1429.19 1403.14 1437.86 1403.14 1448.26C1403.14 1453.46 1401.84 1458.57 1399.24 1463.6C1396.64 1468.45 1392.82 1472.87 1387.8 1476.86C1382.94 1480.67 1376.88 1483.79 1369.6 1486.22C1362.49 1488.47 1354.43 1489.6 1345.42 1489.6C1336.23 1489.6 1328.08 1488.56 1320.98 1486.48C1314.04 1484.23 1308.15 1481.37 1303.3 1477.9C1298.44 1474.43 1294.72 1470.53 1292.12 1466.2C1289.52 1461.87 1288.13 1457.62 1287.96 1453.46C1287.78 1451.55 1288.39 1449.91 1289.78 1448.52C1291.34 1447.13 1293.07 1446.44 1294.98 1446.44H1315C1317.6 1446.44 1319.5 1447.05 1320.72 1448.26C1322.1 1449.47 1323.58 1450.86 1325.14 1452.42C1326.87 1453.98 1329.21 1455.37 1332.16 1456.58C1335.1 1457.79 1339.52 1458.4 1345.42 1458.4C1348.02 1458.4 1350.7 1458.23 1353.48 1457.88C1356.25 1457.53 1358.76 1457.01 1361.02 1456.32C1363.44 1455.45 1365.44 1454.41 1367 1453.2C1368.56 1451.81 1369.34 1450.17 1369.34 1448.26ZM1476.33 1438.12C1476.33 1443.49 1477.72 1447.83 1480.49 1451.12C1483.44 1454.24 1488.81 1455.8 1496.61 1455.8H1512.47C1514.38 1455.8 1516.03 1456.49 1517.41 1457.88C1518.8 1459.27 1519.49 1460.91 1519.49 1462.82V1479.98C1519.49 1481.89 1518.8 1483.53 1517.41 1484.92C1516.03 1486.31 1514.38 1487 1512.47 1487H1493.23C1476.94 1487 1464.37 1483.1 1455.53 1475.3C1446.87 1467.33 1442.53 1455.19 1442.53 1438.9V1383H1425.37C1423.47 1383 1421.82 1382.31 1420.43 1380.92C1419.05 1379.53 1418.35 1377.89 1418.35 1375.98V1358.82C1418.35 1356.91 1419.05 1355.27 1420.43 1353.88C1421.82 1352.49 1423.47 1351.8 1425.37 1351.8H1442.53V1309.42C1442.53 1307.51 1443.23 1305.87 1444.61 1304.48C1446 1303.09 1447.65 1302.4 1449.55 1302.4H1469.31C1471.22 1302.4 1472.87 1303.09 1474.25 1304.48C1475.64 1305.87 1476.33 1307.51 1476.33 1309.42V1351.8H1509.87C1511.78 1351.8 1513.43 1352.49 1514.81 1353.88C1516.2 1355.27 1516.89 1356.91 1516.89 1358.82V1375.98C1516.89 1377.89 1516.2 1379.53 1514.81 1380.92C1513.43 1382.31 1511.78 1383 1509.87 1383H1476.33V1438.12Z" fill="#383D46"/>
</svg>
