<svg width="1720" height="1720" viewBox="0 0 1720 1720" fill="none" xmlns="http://www.w3.org/2000/svg">
<path d="M640.337 1099.25C628.444 1094.73 621.53 1082.1 605.212 1033.42C597.284 1010.19 589.355 988.804 587.511 985.854C585.944 982.903 577.739 976.911 569.534 972.117C561.053 967.6 541.508 955.431 525.375 945.474C509.518 935.425 484.719 920.398 470.706 911.917C456.693 903.712 442.68 893.386 439.545 888.961C430.603 877.068 429.22 857.248 430.326 767.638C431.156 688.907 431.34 685.957 437.241 676.738C444.339 665.122 453.651 660.881 478.726 658.484C497.718 656.641 497.718 656.641 509.334 642.904C515.418 635.529 527.588 620.133 535.792 609.07C552.663 586.576 552.479 587.682 540.033 562.606C516.248 514.206 505.646 488.393 505.646 478.805C505.646 450.041 532.566 437.872 596.546 437.872C630.657 438.149 641.166 439.993 673.157 452.899L696.665 462.395L724.691 448.935C764.61 429.667 784.154 422.753 815.315 416.392C886.394 402.379 954.062 405.329 1019.61 424.873C1029.93 428.008 1039.43 431.511 1040.72 432.525C1042.29 433.539 1048.1 435.936 1053.9 437.78C1059.71 439.624 1076.4 447.552 1090.87 455.481C1230.17 532.368 1294.61 674.249 1254.7 815.67C1242.8 857.708 1224.55 891.542 1193.39 930.078C1184.17 941.418 1176.7 952.296 1176.7 954.416C1176.7 956.537 1174.31 963.359 1171.45 969.444C1168.5 975.805 1158.54 1001.99 1148.95 1027.8C1128.12 1085.14 1126.27 1088.55 1115.12 1095.47C1106.64 1100.72 1102.4 1101 1045.05 1101H984.024L975.265 1092.24C970.287 1087.26 963.926 1075.83 960.238 1066.34C956.827 1057.12 952.863 1046.24 951.48 1042.27C949.36 1036.47 947.516 1035.36 941.708 1036.19C938.02 1037.02 913.405 1039.32 887.316 1041.72C861.133 1043.84 833.107 1046.7 825.179 1047.53L810.613 1049.37L801.394 1067.63C796.139 1077.4 788.211 1089.01 783.417 1093.26L774.935 1100.91L709.388 1100.63C673.618 1100.82 642.457 1100.08 640.337 1099.25ZM1092.16 977.464C1115.67 913.76 1117.24 910.626 1137.89 885.273C1166.93 849.043 1184.63 812.074 1192.84 770.312C1202.61 719.33 1190.16 659.867 1159.28 610.73C1130.7 564.726 1075.48 520.844 1023.48 502.682C1012.6 498.995 1001.26 494.754 998.405 493.463C995.455 492.172 981.719 488.485 967.982 485.258C929.908 476.5 869.707 477.053 827.115 486.549C809.968 490.236 788.026 497.151 778.531 501.392C769.035 505.909 758.71 509.32 755.852 509.32C751.611 509.32 751.058 510.611 752.441 516.695C759.078 544.721 755.852 557.904 739.995 567.4C720.174 579.569 704.317 572.932 680.532 542.601C677.397 538.36 668.363 530.985 660.711 525.914C637.94 511.348 595.44 501.115 595.44 510.057C595.44 512.178 602.539 528.864 611.297 547.026C627.707 581.597 630.564 595.426 624.203 607.78C621.069 613.864 571.839 678.029 549.99 705.041C539.664 717.486 535.424 720.621 527.495 722.188C521.964 723.018 514.035 724.585 509.518 725.599L501.59 727.443L500.76 787.183L500.207 846.922L523.162 860.659C551.465 877.53 609.822 913.484 629.089 925.93C646.237 937.269 648.081 939.943 659.697 974.33C664.952 989.633 671.589 1008.16 674.263 1015.26L679.241 1028.45L710.678 1029.28L742.115 1030.1L749.214 1014.8C753.178 1006.32 759.263 996.271 762.674 992.307C773.737 980.691 775.119 980.414 901.421 969.075C984.945 961.7 984.945 961.7 996.561 973.869C1002.92 980.506 1008.18 990.555 1012.69 1003.46C1021.64 1030.66 1022.74 1031.49 1049.94 1030.38L1072.62 1029.55L1092.16 977.464Z" fill="#FE6F14"/>
<path d="M1132.54 439.716C1127.01 434.738 1120.37 429.944 1117.98 429.114C1111.89 426.994 1111.89 420.356 1118.25 412.428C1128.03 399.706 1135.4 372.233 1135.12 349.001C1134.29 302.537 1107.1 263.079 1063.03 245.378C987.435 214.495 902.066 273.404 901.882 356.376C901.882 368.545 901.605 368.822 892.109 370.666C886.578 371.68 877.267 372.786 871.459 372.786L860.857 373.062L860.027 357.482C857.63 312.032 876.898 266.029 911.562 234.316C937.467 210.53 983.931 192 1017.3 192C1035.83 192 1069.12 198.914 1084.97 206.29C1100.28 213.204 1122.22 229.798 1138.9 246.761C1170.62 279.489 1185.64 334.988 1175.87 382.835C1170.89 406.896 1150.8 448.382 1143.88 448.382C1143.14 448.382 1137.89 444.418 1132.54 439.716Z" fill="#FE6F14"/>
<path d="M170.58 1305C181.673 1305 191.64 1306.3 200.48 1308.9C209.32 1311.33 216.86 1315.14 223.1 1320.34C229.34 1325.37 234.107 1331.69 237.4 1339.32C240.867 1346.95 242.6 1355.79 242.6 1365.84C242.6 1376.07 240.867 1384.99 237.4 1392.62C234.107 1400.25 229.34 1406.57 223.1 1411.6C216.86 1416.63 209.32 1420.44 200.48 1423.04C191.64 1425.64 181.673 1426.94 170.58 1426.94H137.3V1479.98C137.3 1481.89 136.607 1483.53 135.22 1484.92C133.833 1486.31 132.187 1487 130.28 1487H96.22C94.3133 1487 92.6667 1486.31 91.28 1484.92C89.8933 1483.53 89.2 1481.89 89.2 1479.98V1312.02C89.2 1310.11 89.8933 1308.47 91.28 1307.08C92.6667 1305.69 94.3133 1305 96.22 1305H170.58ZM137.3 1386.38H169.28C176.56 1386.38 182.54 1384.82 187.22 1381.7C192.073 1378.41 194.5 1373.12 194.5 1365.84C194.5 1358.56 192.073 1353.36 187.22 1350.24C182.54 1346.95 176.56 1345.3 169.28 1345.3H137.3V1386.38ZM358.702 1351.8C360.609 1351.8 362.256 1352.49 363.642 1353.88C365.029 1355.27 365.722 1356.91 365.722 1358.82V1385.08C365.722 1386.99 365.029 1388.63 363.642 1390.02C362.256 1391.41 360.609 1392.1 358.702 1392.1H335.042C319.096 1392.1 311.122 1400.07 311.122 1416.02V1479.98C311.122 1481.89 310.429 1483.53 309.042 1484.92C307.656 1486.31 306.009 1487 304.102 1487H271.342C269.436 1487 267.789 1486.31 266.402 1484.92C265.016 1483.53 264.322 1481.89 264.322 1479.98V1358.82C264.322 1356.91 265.016 1355.27 266.402 1353.88C267.789 1352.49 269.436 1351.8 271.342 1351.8H301.502C303.409 1351.8 305.056 1352.49 306.442 1353.88C307.829 1355.27 308.522 1356.91 308.522 1358.82V1364.8C312.509 1360.99 317.276 1357.87 322.822 1355.44C328.542 1353.01 335.302 1351.8 343.102 1351.8H358.702ZM518.109 1409.52C518.282 1412.12 518.369 1415.5 518.369 1419.66C518.369 1423.65 518.282 1426.94 518.109 1429.54C517.762 1437.86 515.855 1445.66 512.389 1452.94C508.922 1460.22 504.155 1466.63 498.089 1472.18C492.022 1477.55 484.655 1481.8 475.989 1484.92C467.495 1488.04 457.962 1489.6 447.389 1489.6C436.815 1489.6 427.195 1488.04 418.529 1484.92C410.035 1481.8 402.755 1477.55 396.689 1472.18C390.622 1466.63 385.855 1460.22 382.389 1452.94C378.922 1445.66 377.015 1437.86 376.669 1429.54C376.495 1426.94 376.409 1423.65 376.409 1419.66C376.409 1415.5 376.495 1412.12 376.669 1409.52C376.842 1401.2 378.662 1393.4 382.129 1386.12C385.595 1378.84 390.362 1372.51 396.429 1367.14C402.669 1361.59 410.035 1357.26 418.529 1354.14C427.195 1350.85 436.815 1349.2 447.389 1349.2C457.962 1349.2 467.495 1350.85 475.989 1354.14C484.655 1357.26 492.022 1361.59 498.089 1367.14C504.329 1372.51 509.095 1378.84 512.389 1386.12C515.855 1393.4 517.762 1401.2 518.109 1409.52ZM423.469 1428.24C423.989 1434.83 426.329 1440.03 430.489 1443.84C434.822 1447.48 440.455 1449.3 447.389 1449.3C454.322 1449.3 459.869 1447.48 464.029 1443.84C468.362 1440.03 470.789 1434.83 471.309 1428.24C471.655 1425.64 471.829 1422.69 471.829 1419.4C471.829 1416.11 471.655 1413.16 471.309 1410.56C470.789 1403.97 468.362 1398.86 464.029 1395.22C459.869 1391.41 454.322 1389.5 447.389 1389.5C440.455 1389.5 434.822 1391.41 430.489 1395.22C426.329 1398.86 423.989 1403.97 423.469 1410.56C423.122 1413.16 422.949 1416.11 422.949 1419.4C422.949 1422.69 423.122 1425.64 423.469 1428.24ZM697.074 1479.98C697.074 1481.89 696.381 1483.53 694.994 1484.92C693.607 1486.31 691.961 1487 690.054 1487H657.294C655.387 1487 653.741 1486.31 652.354 1484.92C650.967 1483.53 650.274 1481.89 650.274 1479.98V1392.1H603.474V1479.98C603.474 1481.89 602.781 1483.53 601.394 1484.92C600.007 1486.31 598.361 1487 596.454 1487H563.694C561.787 1487 560.141 1486.31 558.754 1484.92C557.367 1483.53 556.674 1481.89 556.674 1479.98V1392.1H538.734C536.827 1392.1 535.181 1391.41 533.794 1390.02C532.407 1388.63 531.714 1386.99 531.714 1385.08V1358.82C531.714 1356.91 532.407 1355.27 533.794 1353.88C535.181 1352.49 536.827 1351.8 538.734 1351.8H556.674V1344.78C556.674 1336.81 558.061 1329.7 560.834 1323.46C563.781 1317.22 567.767 1312.02 572.794 1307.86C577.821 1303.53 583.801 1300.23 590.734 1297.98C597.667 1295.73 605.207 1294.6 613.354 1294.6H690.054C691.961 1294.6 693.607 1295.29 694.994 1296.68C696.381 1298.07 697.074 1299.71 697.074 1301.62V1327.88C697.074 1329.79 696.381 1331.43 694.994 1332.82C693.607 1334.21 691.961 1334.9 690.054 1334.9H614.654C610.494 1334.9 607.547 1335.94 605.814 1338.02C604.254 1340.1 603.474 1342.79 603.474 1346.08V1351.8H690.054C691.961 1351.8 693.607 1352.49 694.994 1353.88C696.381 1355.27 697.074 1356.91 697.074 1358.82V1479.98ZM789.333 1434.22C789.333 1438.21 790.2 1441.33 791.933 1443.58C793.667 1445.66 796.527 1446.7 800.513 1446.7H821.313C823.22 1446.7 824.867 1447.39 826.253 1448.78C827.64 1450.17 828.333 1451.81 828.333 1453.72V1479.98C828.333 1481.89 827.64 1483.53 826.253 1484.92C824.867 1486.31 823.22 1487 821.313 1487H796.613C788.467 1487 781.013 1485.87 774.253 1483.62C767.667 1481.19 762.033 1477.81 757.353 1473.48C752.673 1468.97 749.033 1463.6 746.433 1457.36C743.833 1450.95 742.533 1443.75 742.533 1435.78V1392.1H723.293C721.387 1392.1 719.74 1391.41 718.353 1390.02C716.967 1388.63 716.273 1386.99 716.273 1385.08V1358.82C716.273 1356.91 716.967 1355.27 718.353 1353.88C719.74 1352.49 721.387 1351.8 723.293 1351.8H742.533V1309.42C742.533 1307.51 743.227 1305.87 744.613 1304.48C746 1303.09 747.647 1302.4 749.553 1302.4H782.313C784.22 1302.4 785.867 1303.09 787.253 1304.48C788.64 1305.87 789.333 1307.51 789.333 1309.42V1351.8H818.713C820.62 1351.8 822.267 1352.49 823.653 1353.88C825.04 1355.27 825.733 1356.91 825.733 1358.82V1385.08C825.733 1386.99 825.04 1388.63 823.653 1390.02C822.267 1391.41 820.62 1392.1 818.713 1392.1H789.333V1434.22ZM974.618 1399.38C975.138 1396.78 976.351 1394.87 978.258 1393.66C980.164 1392.45 982.244 1391.84 984.498 1391.84H1015.44C1017.34 1391.84 1018.99 1392.53 1020.38 1393.92C1021.76 1395.31 1022.46 1396.87 1022.46 1398.6C1022.46 1401.72 1022.02 1405.36 1021.16 1409.52C1020.46 1413.51 1019.25 1417.84 1017.52 1422.52C1015.78 1427.03 1013.53 1431.71 1010.76 1436.56C1007.98 1441.41 1004.69 1446.18 1000.88 1450.86L1028.7 1478.94C1029.74 1479.98 1030.26 1481.19 1030.26 1482.58C1030.26 1483.79 1029.82 1484.83 1028.96 1485.7C1028.09 1486.57 1026.96 1487 1025.58 1487H978.518C976.611 1487 975.224 1486.74 974.358 1486.22C973.491 1485.7 972.711 1485.09 972.018 1484.4L966.298 1478.68C959.191 1482.15 951.391 1484.83 942.898 1486.74C934.578 1488.65 925.391 1489.6 915.338 1489.6C907.538 1489.6 899.651 1488.73 891.678 1487C883.704 1485.44 876.424 1482.67 869.838 1478.68C863.424 1474.52 858.138 1469.15 853.978 1462.56C849.991 1455.8 847.998 1447.39 847.998 1437.34C847.998 1426.94 850.684 1418.01 856.058 1410.56C861.604 1403.11 869.231 1396.26 878.938 1390.02C875.818 1386.38 873.131 1382.91 870.878 1379.62C868.798 1376.33 867.064 1373.12 865.678 1370C864.291 1366.88 863.251 1363.67 862.558 1360.38C862.038 1357.09 861.778 1353.53 861.778 1349.72C861.778 1342.79 863.338 1336.46 866.458 1330.74C869.578 1324.85 873.824 1319.82 879.198 1315.66C884.571 1311.5 890.898 1308.29 898.178 1306.04C905.458 1303.61 913.171 1302.4 921.318 1302.4C929.464 1302.4 937.178 1303.61 944.458 1306.04C951.738 1308.47 958.064 1311.85 963.438 1316.18C968.984 1320.34 973.318 1325.37 976.438 1331.26C979.558 1336.98 981.118 1343.13 981.118 1349.72C981.118 1353.19 980.598 1356.91 979.558 1360.9C978.691 1364.89 977.044 1368.96 974.618 1373.12C972.364 1377.28 969.158 1381.61 964.998 1386.12C961.011 1390.45 955.898 1394.79 949.658 1399.12L967.858 1417.58C969.591 1414.29 970.978 1411.08 972.018 1407.96C973.231 1404.84 974.098 1401.98 974.618 1399.38ZM915.338 1454.76C919.324 1454.76 923.138 1454.33 926.778 1453.46C930.418 1452.42 933.971 1451.03 937.438 1449.3L909.618 1421.22C905.284 1423.65 901.644 1426.42 898.698 1429.54C895.924 1432.49 894.538 1435.69 894.538 1439.16C894.538 1444.19 896.271 1448.09 899.738 1450.86C903.378 1453.46 908.578 1454.76 915.338 1454.76ZM908.318 1349.72C908.318 1352.67 909.358 1355.7 911.438 1358.82C913.518 1361.94 915.944 1364.97 918.718 1367.92C929.118 1361.68 934.318 1355.61 934.318 1349.72C934.318 1345.21 932.931 1342.01 930.158 1340.1C927.384 1338.19 924.438 1337.24 921.318 1337.24C917.851 1337.24 914.818 1338.28 912.218 1340.36C909.618 1342.44 908.318 1345.56 908.318 1349.72ZM1179.67 1445.4C1181.57 1445.4 1183.22 1446.09 1184.61 1447.48C1185.99 1448.87 1186.69 1450.51 1186.69 1452.42V1479.98C1186.69 1481.89 1185.99 1483.53 1184.61 1484.92C1183.22 1486.31 1181.57 1487 1179.67 1487H1059.29C1057.38 1487 1055.73 1486.31 1054.35 1484.92C1052.96 1483.53 1052.27 1481.89 1052.27 1479.98V1312.02C1052.27 1310.11 1052.96 1308.47 1054.35 1307.08C1055.73 1305.69 1057.38 1305 1059.29 1305H1093.35C1095.25 1305 1096.9 1305.69 1098.29 1307.08C1099.67 1308.47 1100.37 1310.11 1100.37 1312.02V1445.4H1179.67ZM1341.53 1409.52C1341.7 1412.12 1341.79 1415.5 1341.79 1419.66C1341.79 1423.65 1341.7 1426.94 1341.53 1429.54C1341.18 1437.86 1339.27 1445.66 1335.81 1452.94C1332.34 1460.22 1327.57 1466.63 1321.51 1472.18C1315.44 1477.55 1308.07 1481.8 1299.41 1484.92C1290.91 1488.04 1281.38 1489.6 1270.81 1489.6C1260.23 1489.6 1250.61 1488.04 1241.95 1484.92C1233.45 1481.8 1226.17 1477.55 1220.11 1472.18C1214.04 1466.63 1209.27 1460.22 1205.81 1452.94C1202.34 1445.66 1200.43 1437.86 1200.09 1429.54C1199.91 1426.94 1199.83 1423.65 1199.83 1419.66C1199.83 1415.5 1199.91 1412.12 1200.09 1409.52C1200.26 1401.2 1202.08 1393.4 1205.55 1386.12C1209.01 1378.84 1213.78 1372.51 1219.85 1367.14C1226.09 1361.59 1233.45 1357.26 1241.95 1354.14C1250.61 1350.85 1260.23 1349.2 1270.81 1349.2C1281.38 1349.2 1290.91 1350.85 1299.41 1354.14C1308.07 1357.26 1315.44 1361.59 1321.51 1367.14C1327.75 1372.51 1332.51 1378.84 1335.81 1386.12C1339.27 1393.4 1341.18 1401.2 1341.53 1409.52ZM1246.89 1428.24C1247.41 1434.83 1249.75 1440.03 1253.91 1443.84C1258.24 1447.48 1263.87 1449.3 1270.81 1449.3C1277.74 1449.3 1283.29 1447.48 1287.45 1443.84C1291.78 1440.03 1294.21 1434.83 1294.73 1428.24C1295.07 1425.64 1295.25 1422.69 1295.25 1419.4C1295.25 1416.11 1295.07 1413.16 1294.73 1410.56C1294.21 1403.97 1291.78 1398.86 1287.45 1395.22C1283.29 1391.41 1277.74 1389.5 1270.81 1389.5C1263.87 1389.5 1258.24 1391.41 1253.91 1395.22C1249.75 1398.86 1247.41 1403.97 1246.89 1410.56C1246.54 1413.16 1246.37 1416.11 1246.37 1419.4C1246.37 1422.69 1246.54 1425.64 1246.89 1428.24ZM1442.46 1446.44C1442.46 1444.53 1441.77 1443.06 1440.38 1442.02C1439.17 1440.98 1437 1440.11 1433.88 1439.42C1430.76 1438.73 1426.6 1438.03 1421.4 1437.34C1416.37 1436.65 1410.05 1435.61 1402.42 1434.22C1389.25 1431.79 1379.11 1426.94 1372 1419.66C1364.89 1412.38 1361.34 1402.85 1361.34 1391.06C1361.34 1385.17 1362.81 1379.71 1365.76 1374.68C1368.71 1369.65 1372.78 1365.23 1377.98 1361.42C1383.35 1357.61 1389.77 1354.66 1397.22 1352.58C1404.67 1350.33 1412.99 1349.2 1422.18 1349.2C1431.19 1349.2 1439.51 1350.33 1447.14 1352.58C1454.77 1354.66 1461.35 1357.43 1466.9 1360.9C1472.45 1364.19 1476.78 1368.09 1479.9 1372.6C1483.19 1376.93 1485.01 1381.27 1485.36 1385.6C1485.53 1387.51 1484.84 1389.15 1483.28 1390.54C1481.89 1391.93 1480.25 1392.62 1478.34 1392.62H1447.4C1445.49 1392.62 1443.93 1392.19 1442.72 1391.32C1441.68 1390.45 1440.38 1389.5 1438.82 1388.46C1437.26 1387.42 1435.18 1386.47 1432.58 1385.6C1430.15 1384.73 1426.69 1384.3 1422.18 1384.3C1418.19 1384.3 1414.81 1384.91 1412.04 1386.12C1409.44 1387.16 1408.14 1388.98 1408.14 1391.58C1408.14 1393.49 1408.57 1394.96 1409.44 1396C1410.31 1397.04 1412.04 1397.91 1414.64 1398.6C1417.24 1399.12 1420.88 1399.73 1425.56 1400.42C1430.24 1401.11 1436.39 1402.07 1444.02 1403.28C1459.79 1405.88 1471.23 1411.25 1478.34 1419.4C1485.62 1427.37 1489.26 1436.56 1489.26 1446.96C1489.26 1452.85 1487.79 1458.4 1484.84 1463.6C1481.89 1468.63 1477.56 1473.13 1471.84 1477.12C1466.12 1480.93 1459.19 1483.97 1451.04 1486.22C1442.89 1488.47 1433.62 1489.6 1423.22 1489.6C1412.82 1489.6 1403.63 1488.47 1395.66 1486.22C1387.86 1483.79 1381.27 1480.76 1375.9 1477.12C1370.53 1473.48 1366.37 1469.49 1363.42 1465.16C1360.65 1460.83 1359.09 1456.58 1358.74 1452.42C1358.57 1450.51 1359.17 1448.87 1360.56 1447.48C1362.12 1446.09 1363.85 1445.4 1365.76 1445.4H1398C1399.91 1445.4 1401.29 1445.92 1402.16 1446.96C1403.03 1447.83 1404.15 1448.87 1405.54 1450.08C1406.93 1451.12 1408.92 1452.16 1411.52 1453.2C1414.12 1454.07 1418.02 1454.5 1423.22 1454.5C1428.42 1454.5 1432.93 1453.81 1436.74 1452.42C1440.55 1451.03 1442.46 1449.04 1442.46 1446.44ZM1574.16 1434.22C1574.16 1438.21 1575.02 1441.33 1576.76 1443.58C1578.49 1445.66 1581.35 1446.7 1585.34 1446.7H1606.14C1608.04 1446.7 1609.69 1447.39 1611.08 1448.78C1612.46 1450.17 1613.16 1451.81 1613.16 1453.72V1479.98C1613.16 1481.89 1612.46 1483.53 1611.08 1484.92C1609.69 1486.31 1608.04 1487 1606.14 1487H1581.44C1573.29 1487 1565.84 1485.87 1559.08 1483.62C1552.49 1481.19 1546.86 1477.81 1542.18 1473.48C1537.5 1468.97 1533.86 1463.6 1531.26 1457.36C1528.66 1450.95 1527.36 1443.75 1527.36 1435.78V1392.1H1508.12C1506.21 1392.1 1504.56 1391.41 1503.18 1390.02C1501.79 1388.63 1501.1 1386.99 1501.1 1385.08V1358.82C1501.1 1356.91 1501.79 1355.27 1503.18 1353.88C1504.56 1352.49 1506.21 1351.8 1508.12 1351.8H1527.36V1309.42C1527.36 1307.51 1528.05 1305.87 1529.44 1304.48C1530.82 1303.09 1532.47 1302.4 1534.38 1302.4H1567.14C1569.04 1302.4 1570.69 1303.09 1572.08 1304.48C1573.46 1305.87 1574.16 1307.51 1574.16 1309.42V1351.8H1603.54C1605.44 1351.8 1607.09 1352.49 1608.48 1353.88C1609.86 1355.27 1610.56 1356.91 1610.56 1358.82V1385.08C1610.56 1386.99 1609.86 1388.63 1608.48 1390.02C1607.09 1391.41 1605.44 1392.1 1603.54 1392.1H1574.16V1434.22Z" fill="#383D46"/>
</svg>
