<svg width="2560" height="765" viewBox="0 0 2560 765" fill="none" xmlns="http://www.w3.org/2000/svg">
<path d="M239.336 710.9C230.736 707.6 225.736 698.5 213.936 663.2C208.236 646.4 202.436 630.9 201.136 628.8C200.036 626.7 194.036 622.3 188.136 618.9C182.036 615.6 167.836 606.8 156.136 599.6C144.636 592.3 126.736 581.4 116.536 575.3C106.436 569.4 96.2358 561.9 93.9358 558.7C87.4358 550.1 86.4358 535.7 87.2358 470.9C87.8358 413.9 87.9358 411.8 92.2358 405.1C97.3358 396.7 104.136 393.6 122.236 391.9C135.936 390.6 135.936 390.6 144.436 380.6C148.836 375.3 157.636 364.1 163.636 356.1C175.836 339.8 175.736 340.6 166.736 322.5C149.536 287.5 141.836 268.8 141.836 261.8C141.836 241 161.336 232.2 207.636 232.2C232.336 232.4 239.936 233.7 263.136 243.1L280.136 250L300.436 240.3C329.336 226.4 343.536 221.3 366.036 216.7C417.536 206.6 466.536 208.7 513.936 222.8C521.436 225.1 528.336 227.6 529.236 228.3C530.336 229 534.536 230.8 538.736 232.1C542.936 233.4 555.036 239.2 565.536 244.9C666.436 300.5 713.036 403.2 684.136 505.6C675.536 536 662.336 560.5 639.736 588.4C633.036 596.6 627.636 604.5 627.636 606C627.636 607.5 625.936 612.5 623.836 616.9C621.736 621.5 614.536 640.5 607.536 659.1C592.436 700.6 591.136 703.1 583.036 708.1C576.936 711.9 573.836 712.1 532.336 712.1H488.136L481.836 705.8C478.236 702.2 473.636 693.9 470.936 687C468.436 680.3 465.636 672.4 464.636 669.6C463.136 665.4 461.736 664.6 457.536 665.2C454.836 665.8 437.036 667.5 418.136 669.2C399.136 670.7 378.936 672.8 373.136 673.4L362.636 674.7L355.936 687.9C352.136 695 346.436 703.4 342.936 706.5L336.836 712L289.336 711.8C263.436 712.1 240.936 711.5 239.336 710.9ZM566.536 622.8C583.536 576.7 584.736 574.4 599.636 556.1C620.636 529.9 633.436 503.1 639.436 472.9C646.536 436 637.536 392.9 615.136 357.4C594.436 324.1 554.436 292.3 516.836 279.2C508.936 276.5 500.736 273.5 498.636 272.5C496.536 271.6 486.536 268.9 476.636 266.6C449.036 260.3 405.436 260.7 374.636 267.5C362.236 270.2 346.336 275.2 339.436 278.2C332.536 281.5 325.036 283.9 323.036 283.9C319.936 283.9 319.536 284.8 320.536 289.2C325.336 309.5 323.036 319 311.536 325.9C297.136 334.7 285.736 329.9 268.436 307.9C266.136 304.8 259.636 299.5 254.036 295.8C237.536 285.3 206.736 277.8 206.736 284.3C206.736 285.8 211.836 297.9 218.236 311.1C230.136 336.1 232.136 346.1 227.536 355.1C225.236 359.5 189.636 406 173.836 425.5C166.336 434.5 163.336 436.8 157.536 437.9C153.536 438.5 147.836 439.6 144.536 440.4L138.836 441.7L138.236 485L137.836 528.3L154.436 538.2C174.936 550.4 217.136 576.4 231.136 585.5C243.536 593.7 244.836 595.6 253.336 620.5C257.136 631.6 261.936 645 263.836 650.1L267.436 659.6L290.236 660.2L313.036 660.8L318.136 649.7C321.036 643.6 325.436 636.3 327.836 633.4C335.836 625 336.836 624.8 428.336 616.6C488.836 611.3 488.836 611.3 497.236 620.1C501.836 624.9 505.636 632.2 508.936 641.5C515.436 661.2 516.236 661.8 535.936 661L552.336 660.4L566.536 622.8Z" fill="#FE6F14"/>
<path d="M595.736 233.4C591.736 229.8 586.936 226.3 585.236 225.7C580.836 224.2 580.836 219.4 585.436 213.6C592.536 204.4 597.836 184.5 597.636 167.7C597.036 134.1 577.336 105.5 545.436 92.7C490.736 70.3 428.936 113 428.736 173.1C428.736 181.9 428.536 182.1 421.636 183.4C417.636 184.1 410.936 184.9 406.636 184.9L398.936 185.1L398.336 173.8C396.636 140.9 410.536 107.6 435.636 84.6C454.436 67.4 488.036 54 512.236 54C525.636 54 549.736 59 561.236 64.3C572.336 69.3 588.236 81.3 600.236 93.6C623.236 117.3 634.036 157.5 627.036 192.1C623.436 209.5 608.836 239.6 603.836 239.6C603.436 239.7 599.636 236.8 595.736 233.4Z" fill="#FE6F14"/>
<path d="M940.71 346C962.49 346 979.41 351.13 991.47 361.39C1003.53 371.65 1009.56 386.68 1009.56 406.48C1009.56 426.28 1003.53 441.4 991.47 451.84C979.41 462.28 962.49 467.5 940.71 467.5H897.51V527.71C897.51 529.69 896.79 531.4 895.35 532.84C893.91 534.28 892.2 535 890.22 535H868.35C866.37 535 864.66 534.28 863.22 532.84C861.78 531.4 861.06 529.69 861.06 527.71V353.29C861.06 351.31 861.78 349.6 863.22 348.16C864.66 346.72 866.37 346 868.35 346H940.71ZM897.51 433.75H939.36C949.62 433.75 957.81 431.77 963.93 427.81C970.05 423.67 973.11 416.56 973.11 406.48C973.11 396.4 970.05 389.47 963.93 385.69C957.81 381.73 949.62 379.75 939.36 379.75H897.51V433.75ZM1102.22 427C1091.42 427 1083.59 429.43 1078.73 434.29C1074.05 438.97 1071.71 446.71 1071.71 457.51V527.71C1071.71 529.69 1070.99 531.4 1069.55 532.84C1068.11 534.28 1066.4 535 1064.42 535H1043.9C1041.92 535 1040.21 534.28 1038.77 532.84C1037.33 531.4 1036.61 529.69 1036.61 527.71V401.89C1036.61 399.91 1037.33 398.2 1038.77 396.76C1040.21 395.32 1041.92 394.6 1043.9 394.6H1064.42C1066.4 394.6 1068.11 395.32 1069.55 396.76C1070.99 398.2 1071.71 399.91 1071.71 401.89V408.1C1076.39 403.78 1081.34 400.45 1086.56 398.11C1091.96 395.77 1098.98 394.6 1107.62 394.6H1119.77C1121.75 394.6 1123.46 395.32 1124.9 396.76C1126.34 398.2 1127.06 399.91 1127.06 401.89V419.71C1127.06 421.69 1126.34 423.4 1124.9 424.84C1123.46 426.28 1121.75 427 1119.77 427H1102.22ZM1209.18 391.9C1219.08 391.9 1227.99 393.43 1235.91 396.49C1244.01 399.55 1250.94 403.78 1256.7 409.18C1262.64 414.58 1267.32 420.88 1270.74 428.08C1274.34 435.28 1276.41 443.02 1276.95 451.3C1277.13 452.92 1277.22 454.99 1277.22 457.51C1277.22 460.03 1277.22 462.55 1277.22 465.07C1277.22 467.59 1277.22 470.11 1277.22 472.63C1277.22 474.97 1277.13 476.95 1276.95 478.57C1276.23 486.85 1274.16 494.59 1270.74 501.79C1267.32 508.99 1262.64 515.29 1256.7 520.69C1250.94 525.91 1244.01 530.05 1235.91 533.11C1227.99 536.17 1219.08 537.7 1209.18 537.7C1199.28 537.7 1190.28 536.17 1182.18 533.11C1174.26 530.05 1167.33 525.91 1161.39 520.69C1155.63 515.29 1151.04 508.99 1147.62 501.79C1144.2 494.59 1142.13 486.85 1141.41 478.57C1141.23 476.95 1141.05 474.97 1140.87 472.63C1140.87 470.11 1140.87 467.59 1140.87 465.07C1140.87 462.55 1140.87 460.03 1140.87 457.51C1141.05 454.99 1141.23 452.92 1141.41 451.3C1141.95 443.02 1143.93 435.28 1147.35 428.08C1150.95 420.88 1155.63 414.58 1161.39 409.18C1167.33 403.78 1174.26 399.55 1182.18 396.49C1190.28 393.43 1199.28 391.9 1209.18 391.9ZM1241.85 452.65C1241.31 447.07 1239.96 442.48 1237.8 438.88C1235.82 435.1 1233.3 432.13 1230.24 429.97C1227.18 427.81 1223.85 426.37 1220.25 425.65C1216.65 424.75 1212.96 424.3 1209.18 424.3C1205.4 424.3 1201.71 424.75 1198.11 425.65C1194.51 426.37 1191.18 427.81 1188.12 429.97C1185.06 432.13 1182.45 435.1 1180.29 438.88C1178.31 442.48 1177.05 447.07 1176.51 452.65C1176.33 454.09 1176.15 455.89 1175.97 458.05C1175.97 460.21 1175.97 462.46 1175.97 464.8C1175.97 467.14 1175.97 469.48 1175.97 471.82C1176.15 473.98 1176.33 475.69 1176.51 476.95C1177.05 482.53 1178.31 487.21 1180.29 490.99C1182.45 494.59 1185.06 497.47 1188.12 499.63C1191.18 501.79 1194.51 503.32 1198.11 504.22C1201.71 504.94 1205.4 505.3 1209.18 505.3C1212.96 505.3 1216.65 504.94 1220.25 504.22C1223.85 503.32 1227.18 501.79 1230.24 499.63C1233.3 497.47 1235.82 494.59 1237.8 490.99C1239.96 487.21 1241.31 482.53 1241.85 476.95C1242.03 475.69 1242.12 473.98 1242.12 471.82C1242.12 469.48 1242.12 467.14 1242.12 464.8C1242.12 462.46 1242.12 460.21 1242.12 458.05C1242.12 455.89 1242.03 454.09 1241.85 452.65ZM1441.88 527.71C1441.88 529.69 1441.16 531.4 1439.72 532.84C1438.28 534.28 1436.57 535 1434.59 535H1414.07C1412.09 535 1410.38 534.28 1408.94 532.84C1407.5 531.4 1406.78 529.69 1406.78 527.71V427H1353.86V527.71C1353.86 529.69 1353.14 531.4 1351.7 532.84C1350.26 534.28 1348.55 535 1346.57 535H1326.05C1324.07 535 1322.36 534.28 1320.92 532.84C1319.48 531.4 1318.76 529.69 1318.76 527.71V427H1300.94C1298.96 427 1297.25 426.28 1295.81 424.84C1294.37 423.4 1293.65 421.69 1293.65 419.71V401.89C1293.65 399.91 1294.37 398.2 1295.81 396.76C1297.25 395.32 1298.96 394.6 1300.94 394.6H1318.76V382.45C1318.76 373.81 1320.02 366.52 1322.54 360.58C1325.06 354.46 1328.66 349.51 1333.34 345.73C1338.02 341.95 1343.6 339.25 1350.08 337.63C1356.74 336.01 1364.12 335.2 1372.22 335.2H1434.59C1436.57 335.2 1438.28 335.92 1439.72 337.36C1441.16 338.8 1441.88 340.51 1441.88 342.49V360.31C1441.88 362.29 1441.16 364 1439.72 365.44C1438.28 366.88 1436.57 367.6 1434.59 367.6H1374.92C1368.08 367.6 1362.86 368.86 1359.26 371.38C1355.66 373.72 1353.86 378.31 1353.86 385.15V394.6H1434.59C1436.57 394.6 1438.28 395.32 1439.72 396.76C1441.16 398.2 1441.88 399.91 1441.88 401.89V527.71ZM1526.3 484.24C1526.3 489.82 1527.74 494.32 1530.62 497.74C1533.68 500.98 1539.26 502.6 1547.36 502.6H1563.83C1565.81 502.6 1567.52 503.32 1568.96 504.76C1570.4 506.2 1571.12 507.91 1571.12 509.89V527.71C1571.12 529.69 1570.4 531.4 1568.96 532.84C1567.52 534.28 1565.81 535 1563.83 535H1543.85C1526.93 535 1513.88 530.95 1504.7 522.85C1495.7 514.57 1491.2 501.97 1491.2 485.05V427H1473.38C1471.4 427 1469.69 426.28 1468.25 424.84C1466.81 423.4 1466.09 421.69 1466.09 419.71V401.89C1466.09 399.91 1466.81 398.2 1468.25 396.76C1469.69 395.32 1471.4 394.6 1473.38 394.6H1491.2V350.59C1491.2 348.61 1491.92 346.9 1493.36 345.46C1494.8 344.02 1496.51 343.3 1498.49 343.3H1519.01C1520.99 343.3 1522.7 344.02 1524.14 345.46C1525.58 346.9 1526.3 348.61 1526.3 350.59V394.6H1561.13C1563.11 394.6 1564.82 395.32 1566.26 396.76C1567.7 398.2 1568.42 399.91 1568.42 401.89V419.71C1568.42 421.69 1567.7 423.4 1566.26 424.84C1564.82 426.28 1563.11 427 1561.13 427H1526.3V484.24ZM1726.76 442.12C1727.84 438.16 1730.27 436.18 1734.05 436.18H1754.57C1756.55 436.18 1758.26 436.9 1759.7 438.34C1761.32 439.78 1762.04 441.49 1761.86 443.47C1761.14 451.03 1758.8 459.49 1754.84 468.85C1751.06 478.03 1745.75 487.03 1738.91 495.85L1765.91 521.77C1767.17 523.03 1767.98 524.11 1768.34 525.01C1768.7 525.91 1768.88 526.72 1768.88 527.44C1768.88 529.6 1768.16 531.4 1766.72 532.84C1765.46 534.28 1763.84 535 1761.86 535H1735.13C1733.15 535 1731.71 534.73 1730.81 534.19C1729.91 533.47 1729.1 532.84 1728.38 532.3L1714.61 519.34C1706.87 524.92 1698.23 529.42 1688.69 532.84C1679.33 536.08 1669.07 537.7 1657.91 537.7C1649.99 537.7 1642.16 536.62 1634.42 534.46C1626.86 532.3 1620.02 529.06 1613.9 524.74C1607.96 520.42 1603.1 515.11 1599.32 508.81C1595.54 502.51 1593.65 495.22 1593.65 486.94C1593.65 480.64 1594.55 474.97 1596.35 469.93C1598.15 464.89 1600.58 460.3 1603.64 456.16C1606.88 452.02 1610.48 448.24 1614.44 444.82C1618.58 441.4 1622.9 438.16 1627.4 435.1C1620.38 427.36 1615.25 420.16 1612.01 413.5C1608.77 406.66 1607.15 399.64 1607.15 392.44C1607.15 385.24 1608.41 378.67 1610.93 372.73C1613.63 366.61 1617.32 361.39 1622 357.07C1626.68 352.75 1632.26 349.42 1638.74 347.08C1645.22 344.56 1652.42 343.3 1660.34 343.3C1668.08 343.3 1675.19 344.56 1681.67 347.08C1688.33 349.6 1693.91 353.11 1698.41 357.61C1703.09 361.93 1706.69 367.06 1709.21 373C1711.91 378.94 1713.26 385.33 1713.26 392.17C1713.26 402.97 1710.38 412.06 1704.62 419.44C1699.04 426.64 1691.3 433.66 1681.4 440.5L1713.53 471.28C1716.77 466.6 1719.47 461.74 1721.63 456.7C1723.79 451.66 1725.5 446.8 1726.76 442.12ZM1652.51 459.4C1645.67 463.54 1640 467.77 1635.5 472.09C1631 476.23 1628.75 480.91 1628.75 486.13C1628.75 488.83 1629.56 491.35 1631.18 493.69C1632.98 496.03 1635.23 498.01 1637.93 499.63C1640.63 501.25 1643.69 502.51 1647.11 503.41C1650.71 504.31 1654.31 504.76 1657.91 504.76C1663.85 504.76 1669.43 503.95 1674.65 502.33C1680.05 500.53 1685.09 498.1 1689.77 495.04L1652.51 459.4ZM1656.83 416.74C1663.85 412.24 1669.16 408.37 1672.76 405.13C1676.36 401.71 1678.16 397.39 1678.16 392.17C1678.16 388.57 1676.72 385.15 1673.84 381.91C1671.14 378.67 1666.64 377.05 1660.34 377.05C1654.4 377.05 1649.9 378.58 1646.84 381.64C1643.78 384.52 1642.25 388.03 1642.25 392.17C1642.25 396.85 1643.6 401.08 1646.3 404.86C1649.18 408.64 1652.69 412.6 1656.83 416.74ZM1920.54 501.25C1922.52 501.25 1924.23 501.97 1925.67 503.41C1927.11 504.85 1927.83 506.56 1927.83 508.54V527.71C1927.83 529.69 1927.11 531.4 1925.67 532.84C1924.23 534.28 1922.52 535 1920.54 535H1802.28C1800.3 535 1798.59 534.28 1797.15 532.84C1795.71 531.4 1794.99 529.69 1794.99 527.71V353.29C1794.99 351.31 1795.71 349.6 1797.15 348.16C1798.59 346.72 1800.3 346 1802.28 346H1824.15C1826.13 346 1827.84 346.72 1829.28 348.16C1830.72 349.6 1831.44 351.31 1831.44 353.29V501.25H1920.54ZM2013.12 391.9C2023.02 391.9 2031.93 393.43 2039.85 396.49C2047.95 399.55 2054.88 403.78 2060.64 409.18C2066.58 414.58 2071.26 420.88 2074.68 428.08C2078.28 435.28 2080.35 443.02 2080.89 451.3C2081.07 452.92 2081.16 454.99 2081.16 457.51C2081.16 460.03 2081.16 462.55 2081.16 465.07C2081.16 467.59 2081.16 470.11 2081.16 472.63C2081.16 474.97 2081.07 476.95 2080.89 478.57C2080.17 486.85 2078.1 494.59 2074.68 501.79C2071.26 508.99 2066.58 515.29 2060.64 520.69C2054.88 525.91 2047.95 530.05 2039.85 533.11C2031.93 536.17 2023.02 537.7 2013.12 537.7C2003.22 537.7 1994.22 536.17 1986.12 533.11C1978.2 530.05 1971.27 525.91 1965.33 520.69C1959.57 515.29 1954.98 508.99 1951.56 501.79C1948.14 494.59 1946.07 486.85 1945.35 478.57C1945.17 476.95 1944.99 474.97 1944.81 472.63C1944.81 470.11 1944.81 467.59 1944.81 465.07C1944.81 462.55 1944.81 460.03 1944.81 457.51C1944.99 454.99 1945.17 452.92 1945.35 451.3C1945.89 443.02 1947.87 435.28 1951.29 428.08C1954.89 420.88 1959.57 414.58 1965.33 409.18C1971.27 403.78 1978.2 399.55 1986.12 396.49C1994.22 393.43 2003.22 391.9 2013.12 391.9ZM2045.79 452.65C2045.25 447.07 2043.9 442.48 2041.74 438.88C2039.76 435.1 2037.24 432.13 2034.18 429.97C2031.12 427.81 2027.79 426.37 2024.19 425.65C2020.59 424.75 2016.9 424.3 2013.12 424.3C2009.34 424.3 2005.65 424.75 2002.05 425.65C1998.45 426.37 1995.12 427.81 1992.06 429.97C1989 432.13 1986.39 435.1 1984.23 438.88C1982.25 442.48 1980.99 447.07 1980.45 452.65C1980.27 454.09 1980.09 455.89 1979.91 458.05C1979.91 460.21 1979.91 462.46 1979.91 464.8C1979.91 467.14 1979.91 469.48 1979.91 471.82C1980.09 473.98 1980.27 475.69 1980.45 476.95C1980.99 482.53 1982.25 487.21 1984.23 490.99C1986.39 494.59 1989 497.47 1992.06 499.63C1995.12 501.79 1998.45 503.32 2002.05 504.22C2005.65 504.94 2009.34 505.3 2013.12 505.3C2016.9 505.3 2020.59 504.94 2024.19 504.22C2027.79 503.32 2031.12 501.79 2034.18 499.63C2037.24 497.47 2039.76 494.59 2041.74 490.99C2043.9 487.21 2045.25 482.53 2045.79 476.95C2045.97 475.69 2046.06 473.98 2046.06 471.82C2046.06 469.48 2046.06 467.14 2046.06 464.8C2046.06 462.46 2046.06 460.21 2046.06 458.05C2046.06 455.89 2045.97 454.09 2045.79 452.65ZM2188.27 494.77C2188.27 492.79 2187.64 491.17 2186.38 489.91C2185.12 488.65 2182.87 487.48 2179.63 486.4C2176.57 485.32 2172.43 484.24 2167.21 483.16C2161.99 482.08 2155.33 480.64 2147.23 478.84C2139.31 477.04 2132.74 474.79 2127.52 472.09C2122.3 469.39 2118.07 466.24 2114.83 462.64C2111.77 459.04 2109.61 454.99 2108.35 450.49C2107.09 445.81 2106.46 440.77 2106.46 435.37C2106.46 429.97 2107.72 424.66 2110.24 419.44C2112.76 414.22 2116.36 409.63 2121.04 405.67C2125.9 401.53 2131.75 398.2 2138.59 395.68C2145.43 393.16 2153.26 391.9 2162.08 391.9C2170.9 391.9 2178.73 392.89 2185.57 394.87C2192.59 396.85 2198.53 399.46 2203.39 402.7C2208.25 405.94 2212.03 409.72 2214.73 414.04C2217.43 418.18 2218.96 422.41 2219.32 426.73C2219.5 428.71 2218.78 430.42 2217.16 431.86C2215.72 433.3 2214.01 434.02 2212.03 434.02H2191.24C2188.54 434.02 2186.47 433.57 2185.03 432.67C2183.77 431.59 2182.33 430.42 2180.71 429.16C2179.09 427.9 2176.93 426.82 2174.23 425.92C2171.53 424.84 2167.48 424.3 2162.08 424.3C2156.68 424.3 2151.91 425.11 2147.77 426.73C2143.63 428.35 2141.56 431.23 2141.56 435.37C2141.56 437.35 2142.01 439.06 2142.91 440.5C2143.99 441.76 2145.88 442.93 2148.58 444.01C2151.46 445.09 2155.33 446.26 2160.19 447.52C2165.23 448.6 2171.71 449.95 2179.63 451.57C2195.65 454.99 2206.9 460.39 2213.38 467.77C2220.04 474.97 2223.37 483.97 2223.37 494.77C2223.37 500.17 2222.02 505.48 2219.32 510.7C2216.62 515.74 2212.66 520.33 2207.44 524.47C2202.4 528.43 2196.1 531.67 2188.54 534.19C2181.16 536.53 2172.79 537.7 2163.43 537.7C2153.89 537.7 2145.43 536.62 2138.05 534.46C2130.85 532.12 2124.73 529.15 2119.69 525.55C2114.65 521.95 2110.78 517.9 2108.08 513.4C2105.38 508.9 2103.94 504.49 2103.76 500.17C2103.58 498.19 2104.21 496.48 2105.65 495.04C2107.27 493.6 2109.07 492.88 2111.05 492.88H2131.84C2134.54 492.88 2136.52 493.51 2137.78 494.77C2139.22 496.03 2140.75 497.47 2142.37 499.09C2144.17 500.71 2146.6 502.15 2149.66 503.41C2152.72 504.67 2157.31 505.3 2163.43 505.3C2166.13 505.3 2168.92 505.12 2171.8 504.76C2174.68 504.4 2177.29 503.86 2179.63 503.14C2182.15 502.24 2184.22 501.16 2185.84 499.9C2187.46 498.46 2188.27 496.75 2188.27 494.77ZM2299.39 484.24C2299.39 489.82 2300.83 494.32 2303.71 497.74C2306.77 500.98 2312.35 502.6 2320.45 502.6H2336.92C2338.9 502.6 2340.61 503.32 2342.05 504.76C2343.49 506.2 2344.21 507.91 2344.21 509.89V527.71C2344.21 529.69 2343.49 531.4 2342.05 532.84C2340.61 534.28 2338.9 535 2336.92 535H2316.94C2300.02 535 2286.97 530.95 2277.79 522.85C2268.79 514.57 2264.29 501.97 2264.29 485.05V427H2246.47C2244.49 427 2242.78 426.28 2241.34 424.84C2239.9 423.4 2239.18 421.69 2239.18 419.71V401.89C2239.18 399.91 2239.9 398.2 2241.34 396.76C2242.78 395.32 2244.49 394.6 2246.47 394.6H2264.29V350.59C2264.29 348.61 2265.01 346.9 2266.45 345.46C2267.89 344.02 2269.6 343.3 2271.58 343.3H2292.1C2294.08 343.3 2295.79 344.02 2297.23 345.46C2298.67 346.9 2299.39 348.61 2299.39 350.59V394.6H2334.22C2336.2 394.6 2337.91 395.32 2339.35 396.76C2340.79 398.2 2341.51 399.91 2341.51 401.89V419.71C2341.51 421.69 2340.79 423.4 2339.35 424.84C2337.91 426.28 2336.2 427 2334.22 427H2299.39V484.24Z" fill="#F7F7F7"/>
</svg>
